<?xml version="1.0" encoding="utf-8"?>
<!-- Uploaded to: SVG Repo, www.svgrepo.com, Generator: SVG Repo Mixer Tools -->
<svg width="800px" height="800px" viewBox="0 0 1024 1024" class="icon"  version="1.1" xmlns="http://www.w3.org/2000/svg"><path d="M 659.001 1021.27 H 364.43 c -39.3671 0 -71.5662 -32.1991 -71.5662 -71.5662 v -512 c 0 -39.3671 32.1991 -71.5662 71.5662 -71.5662 h 294.571 c 39.3671 0 71.5662 32.1991 71.5662 71.5662 v 511.886 c 0 39.3671 -32.1991 71.68 -71.5662 71.68 Z" fill="#f7c194" /><path d="M 623.389 137.216 c -66.2187 131.755 -64.6258 -117.419 -110.365 -133.917 c -4.096 21.2765 -10.6951 42.2115 -19.456 62.0089 c -17.1805 38.7982 -46.08 55.9787 -71.1111 87.8365 c -39.8222 50.7449 -35.9538 132.779 12.6293 176.014 c 58.4818 51.9965 152.349 31.5165 185.117 -39.1395 c 21.0489 -45.3973 6.71289 -104.903 3.18578 -152.803 Z" fill="#f9ad5a" /><path d="M 656.839 676.409 c 0 -45.5111 -36.864 -82.4889 -82.4889 -82.4889 c -25.1449 0 -47.6729 11.264 -62.8053 29.0133 c -15.1325 -17.7493 -37.6605 -29.0133 -62.8053 -29.0133 c -45.5111 0 -82.4889 36.864 -82.4889 82.4889 c 0 23.8933 11.0365 43.9182 26.3965 60.5298 L 512 851.285 l 117.077 -113.209 c 14.7911 -15.4738 27.7618 -37.0915 27.7618 -61.6675 Z" fill="#d1525c" /><path d="M 404.935 690.631 c -2.61689 0 -4.89245 -1.82045 -5.46133 -4.43733 c -0.796445 -3.64089 -1.25155 -7.50933 -1.25155 -11.3778 c 0 -28.4445 23.2107 -51.6551 51.6551 -51.6551 c 11.4915 0 22.3005 3.64089 31.2889 10.5813 c 2.50311 1.93422 2.95822 5.46133 1.024 7.85067 c -1.93422 2.50311 -5.46133 2.95822 -7.85067 1.024 c -7.05422 -5.46133 -15.5875 -8.30578 -24.4622 -8.30578 c -22.3005 0 -40.3911 18.0907 -40.3911 40.3911 c 0 2.95822 0.341333 6.03022 1.024 8.87467 c 0.682667 3.072 -1.25155 6.03022 -4.20978 6.71289 c -0.455111 0.227555 -0.910222 0.341333 -1.36533 0.341333 Z" fill="#ffffff" /><path d="M 497.891 149.618 c -19.5698 43.5769 -72.2489 137.557 4.77867 160.427 c 16.9529 5.00622 38.5707 1.82045 49.6071 -13.4258 c 28.3307 -39.0258 -31.5165 -83.6267 -32.3129 -120.946 c -0.796445 0.682667 -9.44355 15.36 -9.78489 12.6293 c -1.59289 -13.0845 -6.71289 -26.624 -12.288 -38.6845 Z" fill="#ea8500" /><path d="M 505.742 210.603 c -13.9947 25.0311 -43.4631 89.3155 2.84445 100.807 c 26.9653 6.59911 42.5529 -15.8151 30.3787 -37.3191 c -12.9707 -22.8693 -34.4747 -33.5645 -33.2231 -63.488 Z" fill="#e5653e" /></svg>